<svg height="512pt" viewBox="0 0 512 512" width="512pt" xmlns="http://www.w3.org/2000/svg"><path d="m391 256c0 8.398438-6.597656 15-15 15h-83.699219l67.796875 68.097656c6 5.703125 6 15.300782 0 21-2.699218 3.003906-6.597656 4.503906-10.496094 4.503906-3.902343 0-7.5-1.5-10.5-4.503906l-68.101562-67.796875v83.699219c0 8.398438-6.597656 15-15 15s-15-6.601562-15-15v-83.699219l-68.101562 67.796875c-3 3.003906-6.597657 4.503906-10.5 4.503906-3.898438 0-7.796876-1.5-10.496094-4.503906-6-5.699218-6-15.296875 0-21l67.796875-68.097656h-83.699219c-8.402344 0-15-6.601562-15-15 0-8.402344 6.597656-15 15-15h83.699219l-67.796875-68.101562c-6-5.699219-6-15.300782 0-21 5.695312-6 15.296875-6 20.996094 0l68.101562 67.800781v-83.699219c0-8.402344 6.601562-15 15-15 8.402344 0 15 6.597656 15 15v83.699219l68.101562-67.800781c5.699219-6 15.300782-6 21 0 6 5.699218 6 15.300781 0 21l-67.800781 68.101562h83.699219c8.402344 0 15 6.597656 15 15zm0 0" fill="#53433f"/><path d="m391 256c0 8.398438-6.597656 15-15 15h-83.699219l67.796875 68.097656c6 5.703125 6 15.300782 0 21-2.699218 3.003906-6.597656 4.503906-10.496094 4.503906-3.902343 0-7.5-1.5-10.5-4.503906l-68.101562-67.796875v83.699219c0 8.398438-6.597656 15-15 15v-270c8.402344 0 15 6.597656 15 15v83.699219l68.101562-67.800781c5.699219-6 15.300782-6 21 0 6 5.699218 6 15.300781 0 21l-67.800781 68.101562h83.699219c8.402344 0 15 6.597656 15 15zm0 0" fill="#3e322e"/><g fill="#53433f"><path d="m286 30v94.601562c-9.601562-2.101562-19.800781-3.601562-30-3.601562s-20.398438 1.5-30 3.601562v-94.601562c0-16.5 13.5-30 30-30s30 13.5 30 30zm0 0"/><path d="m141.957031 184.386719c10.804688-17.167969 25.261719-31.621094 42.429688-42.425781l-66.273438-66.273438c-11.714843-11.714844-30.710937-11.714844-42.425781 0-11.714844 11.71875-11.714844 30.710938 0 42.425781zm0 0"/><path d="m121 256c0-10.347656 1.402344-20.320312 3.609375-30h-94.609375c-16.570312 0-30 13.429688-30 30 0 16.566406 13.429688 30 30 30h94.609375c-2.207031-9.679688-3.609375-19.652344-3.609375-30zm0 0"/></g><path d="m370.042969 184.386719 66.269531-66.273438c11.714844-11.714843 11.714844-30.707031 0-42.425781-11.714844-11.714844-30.710938-11.714844-42.425781 0l-66.273438 66.273438c17.167969 10.800781 31.625 25.257812 42.429688 42.425781zm0 0" fill="#3e322e"/><path d="m482 226h-94.609375c2.207031 9.679688 3.609375 19.652344 3.609375 30s-1.402344 20.320312-3.609375 30h94.609375c16.570312 0 30-13.433594 30-30 0-16.570312-13.429688-30-30-30zm0 0" fill="#3e322e"/><path d="m370.042969 327.613281c-10.804688 17.167969-25.261719 31.621094-42.425781 42.425781l66.269531 66.273438c11.714843 11.714844 30.710937 11.714844 42.425781 0s11.714844-30.710938 0-42.425781zm0 0" fill="#3e322e"/><path d="m141.957031 327.613281-66.269531 66.273438c-11.714844 11.714843-11.714844 30.707031 0 42.425781 11.714844 11.714844 30.710938 11.714844 42.425781 0l66.269531-66.273438c-17.164062-10.800781-31.621093-25.257812-42.425781-42.425781zm0 0" fill="#53433f"/><path d="m286 387.398438v94.601562c0 16.5-13.5 30-30 30s-30-13.5-30-30v-94.601562c9.601562 2.101562 19.800781 3.601562 30 3.601562s20.398438-1.5 30-3.601562zm0 0" fill="#53433f"/><path d="m286 30v94.601562c-9.601562-2.101562-19.800781-3.601562-30-3.601562v-121c16.5 0 30 13.5 30 30zm0 0" fill="#3e322e"/><path d="m256 391c10.199219 0 20.398438-1.5 30-3.601562v94.601562c0 16.5-13.5 30-30 30zm0 0" fill="#3e322e"/><path d="m256 91c-90.902344 0-165 74.097656-165 165 0 90.898438 74.097656 165 165 165s165-74.101562 165-165c0-90.902344-74.097656-165-165-165zm0 270c-57.898438 0-105-47.101562-105-105s47.101562-105 105-105 105 47.101562 105 105-47.101562 105-105 105zm0 0" fill="#725d57"/><path d="m421 256c0 90.898438-74.097656 165-165 165v-60c57.898438 0 105-47.101562 105-105s-47.101562-105-105-105v-60c90.902344 0 165 74.097656 165 165zm0 0" fill="#68544f"/></svg>